<mxfile host="app.diagrams.net" agent="Mozilla/5.0 (Windows NT 10.0; Win64; x64) AppleWebKit/537.36 (KHTML, like Gecko) Chrome/130.0.0.0 Safari/537.36" version="24.8.4">
  <diagram name="Page-1" id="k46LbsUP9ExTe1OxDocn">
    <mxGraphModel dx="4780" dy="2460" grid="1" gridSize="10" guides="1" tooltips="1" connect="1" arrows="1" fold="1" page="1" pageScale="1" pageWidth="850" pageHeight="1100" math="0" shadow="0">
      <root>
        <mxCell id="0" />
        <mxCell id="1" parent="0" />
        <mxCell id="olpWykgg6061KEIdtW-h-6" style="edgeStyle=orthogonalEdgeStyle;rounded=0;orthogonalLoop=1;jettySize=auto;html=1;exitX=1;exitY=0.5;exitDx=0;exitDy=0;entryX=0;entryY=0.5;entryDx=0;entryDy=0;" parent="1" source="olpWykgg6061KEIdtW-h-1" target="olpWykgg6061KEIdtW-h-5" edge="1">
          <mxGeometry relative="1" as="geometry" />
        </mxCell>
        <mxCell id="olpWykgg6061KEIdtW-h-1" value="&lt;font style=&quot;font-size: 14px;&quot;&gt;Professor faz o Login com a matricula e a senha&lt;/font&gt;" style="rounded=0;whiteSpace=wrap;html=1;" parent="1" vertex="1">
          <mxGeometry x="220" y="200" width="200" height="80" as="geometry" />
        </mxCell>
        <mxCell id="olpWykgg6061KEIdtW-h-3" style="edgeStyle=orthogonalEdgeStyle;rounded=0;orthogonalLoop=1;jettySize=auto;html=1;exitX=1;exitY=0.5;exitDx=0;exitDy=0;entryX=0;entryY=0.5;entryDx=0;entryDy=0;" parent="1" source="olpWykgg6061KEIdtW-h-2" target="olpWykgg6061KEIdtW-h-1" edge="1">
          <mxGeometry relative="1" as="geometry" />
        </mxCell>
        <mxCell id="olpWykgg6061KEIdtW-h-2" value="" style="ellipse;whiteSpace=wrap;html=1;aspect=fixed;" parent="1" vertex="1">
          <mxGeometry x="80" y="220" width="40" height="40" as="geometry" />
        </mxCell>
        <mxCell id="olpWykgg6061KEIdtW-h-9" style="edgeStyle=orthogonalEdgeStyle;rounded=0;orthogonalLoop=1;jettySize=auto;html=1;exitX=0;exitY=0.5;exitDx=0;exitDy=0;entryX=0.5;entryY=0;entryDx=0;entryDy=0;" parent="1" source="olpWykgg6061KEIdtW-h-4" target="olpWykgg6061KEIdtW-h-1" edge="1">
          <mxGeometry relative="1" as="geometry" />
        </mxCell>
        <mxCell id="olpWykgg6061KEIdtW-h-15" value="&lt;font style=&quot;font-size: 14px;&quot;&gt;Reencaminhado&lt;/font&gt;&lt;div&gt;&lt;font style=&quot;font-size: 14px;&quot;&gt;para o Login&lt;/font&gt;&lt;/div&gt;" style="edgeLabel;html=1;align=center;verticalAlign=middle;resizable=0;points=[];" parent="olpWykgg6061KEIdtW-h-9" vertex="1" connectable="0">
          <mxGeometry x="-0.2093" y="-2" relative="1" as="geometry">
            <mxPoint x="33" y="2" as="offset" />
          </mxGeometry>
        </mxCell>
        <mxCell id="olpWykgg6061KEIdtW-h-4" value="&lt;font style=&quot;font-size: 14px;&quot;&gt;Mensagem de Erro&lt;/font&gt;" style="rounded=0;whiteSpace=wrap;html=1;" parent="1" vertex="1">
          <mxGeometry x="460" y="40" width="200" height="80" as="geometry" />
        </mxCell>
        <mxCell id="olpWykgg6061KEIdtW-h-7" style="edgeStyle=orthogonalEdgeStyle;rounded=0;orthogonalLoop=1;jettySize=auto;html=1;exitX=0.5;exitY=0;exitDx=0;exitDy=0;entryX=0.5;entryY=1;entryDx=0;entryDy=0;" parent="1" source="olpWykgg6061KEIdtW-h-5" target="olpWykgg6061KEIdtW-h-4" edge="1">
          <mxGeometry relative="1" as="geometry" />
        </mxCell>
        <mxCell id="olpWykgg6061KEIdtW-h-8" value="&lt;font style=&quot;font-size: 14px;&quot;&gt;Informações&lt;br&gt;Incorretas&lt;/font&gt;" style="edgeLabel;html=1;align=center;verticalAlign=middle;resizable=0;points=[];" parent="olpWykgg6061KEIdtW-h-7" vertex="1" connectable="0">
          <mxGeometry x="-0.2834" y="-2" relative="1" as="geometry">
            <mxPoint x="-2" y="-4" as="offset" />
          </mxGeometry>
        </mxCell>
        <mxCell id="olpWykgg6061KEIdtW-h-11" style="edgeStyle=orthogonalEdgeStyle;rounded=0;orthogonalLoop=1;jettySize=auto;html=1;exitX=0.5;exitY=1;exitDx=0;exitDy=0;entryX=0.5;entryY=0;entryDx=0;entryDy=0;" parent="1" source="olpWykgg6061KEIdtW-h-5" target="olpWykgg6061KEIdtW-h-10" edge="1">
          <mxGeometry relative="1" as="geometry" />
        </mxCell>
        <mxCell id="olpWykgg6061KEIdtW-h-12" value="&lt;font style=&quot;font-size: 14px;&quot;&gt;Informações&lt;br&gt;Corretas&lt;/font&gt;" style="edgeLabel;html=1;align=center;verticalAlign=middle;resizable=0;points=[];" parent="olpWykgg6061KEIdtW-h-11" vertex="1" connectable="0">
          <mxGeometry x="-0.4034" y="-1" relative="1" as="geometry">
            <mxPoint x="1" y="10" as="offset" />
          </mxGeometry>
        </mxCell>
        <mxCell id="olpWykgg6061KEIdtW-h-5" value="" style="rhombus;whiteSpace=wrap;html=1;" parent="1" vertex="1">
          <mxGeometry x="540" y="220" width="40" height="40" as="geometry" />
        </mxCell>
        <mxCell id="olpWykgg6061KEIdtW-h-16" style="edgeStyle=orthogonalEdgeStyle;rounded=0;orthogonalLoop=1;jettySize=auto;html=1;exitX=0.5;exitY=1;exitDx=0;exitDy=0;entryX=0.5;entryY=0;entryDx=0;entryDy=0;" parent="1" source="olpWykgg6061KEIdtW-h-10" target="olpWykgg6061KEIdtW-h-14" edge="1">
          <mxGeometry relative="1" as="geometry" />
        </mxCell>
        <mxCell id="olpWykgg6061KEIdtW-h-10" value="&lt;font style=&quot;font-size: 14px;&quot;&gt;Homepage Professor&lt;/font&gt;" style="rounded=0;whiteSpace=wrap;html=1;" parent="1" vertex="1">
          <mxGeometry x="460" y="360" width="200" height="80" as="geometry" />
        </mxCell>
        <mxCell id="olpWykgg6061KEIdtW-h-18" style="edgeStyle=orthogonalEdgeStyle;rounded=0;orthogonalLoop=1;jettySize=auto;html=1;exitX=0.5;exitY=1;exitDx=0;exitDy=0;entryX=0.5;entryY=0;entryDx=0;entryDy=0;" parent="1" source="olpWykgg6061KEIdtW-h-14" target="olpWykgg6061KEIdtW-h-17" edge="1">
          <mxGeometry relative="1" as="geometry" />
        </mxCell>
        <mxCell id="olpWykgg6061KEIdtW-h-19" value="&lt;font style=&quot;font-size: 14px;&quot;&gt;Nova Requisição&lt;br&gt;Faltas&lt;/font&gt;" style="edgeLabel;html=1;align=center;verticalAlign=middle;resizable=0;points=[];" parent="olpWykgg6061KEIdtW-h-18" vertex="1" connectable="0">
          <mxGeometry x="-0.3629" y="-1" relative="1" as="geometry">
            <mxPoint x="1" y="14" as="offset" />
          </mxGeometry>
        </mxCell>
        <mxCell id="olpWykgg6061KEIdtW-h-32" style="edgeStyle=orthogonalEdgeStyle;rounded=0;orthogonalLoop=1;jettySize=auto;html=1;exitX=0;exitY=0.5;exitDx=0;exitDy=0;entryX=0.5;entryY=0;entryDx=0;entryDy=0;" parent="1" source="olpWykgg6061KEIdtW-h-14" target="olpWykgg6061KEIdtW-h-31" edge="1">
          <mxGeometry relative="1" as="geometry" />
        </mxCell>
        <mxCell id="olpWykgg6061KEIdtW-h-33" value="&lt;font style=&quot;font-size: 14px;&quot;&gt;Filtrar Requisições&lt;/font&gt;" style="edgeLabel;html=1;align=center;verticalAlign=middle;resizable=0;points=[];" parent="olpWykgg6061KEIdtW-h-32" vertex="1" connectable="0">
          <mxGeometry x="-0.0911" relative="1" as="geometry">
            <mxPoint x="28" as="offset" />
          </mxGeometry>
        </mxCell>
        <mxCell id="olpWykgg6061KEIdtW-h-14" value="" style="rhombus;whiteSpace=wrap;html=1;" parent="1" vertex="1">
          <mxGeometry x="540" y="520" width="40" height="40" as="geometry" />
        </mxCell>
        <mxCell id="kANDuQccYSE2ELApMUoI-5" style="edgeStyle=orthogonalEdgeStyle;rounded=0;orthogonalLoop=1;jettySize=auto;html=1;exitX=0.5;exitY=1;exitDx=0;exitDy=0;entryX=0.5;entryY=0;entryDx=0;entryDy=0;" edge="1" parent="1" source="olpWykgg6061KEIdtW-h-17" target="kANDuQccYSE2ELApMUoI-4">
          <mxGeometry relative="1" as="geometry" />
        </mxCell>
        <mxCell id="olpWykgg6061KEIdtW-h-17" value="&lt;font style=&quot;font-size: 14px;&quot;&gt;Preencher Justificativa de Faltas&lt;/font&gt;" style="rounded=0;whiteSpace=wrap;html=1;" parent="1" vertex="1">
          <mxGeometry x="460" y="640" width="200" height="80" as="geometry" />
        </mxCell>
        <mxCell id="olpWykgg6061KEIdtW-h-30" style="edgeStyle=orthogonalEdgeStyle;rounded=0;orthogonalLoop=1;jettySize=auto;html=1;exitX=0.5;exitY=1;exitDx=0;exitDy=0;entryX=0.5;entryY=0;entryDx=0;entryDy=0;" parent="1" source="olpWykgg6061KEIdtW-h-27" target="olpWykgg6061KEIdtW-h-29" edge="1">
          <mxGeometry relative="1" as="geometry" />
        </mxCell>
        <mxCell id="olpWykgg6061KEIdtW-h-27" value="&lt;font style=&quot;font-size: 14px;&quot;&gt;Preencher Reposição de Faltas&lt;/font&gt;" style="rounded=0;whiteSpace=wrap;html=1;" parent="1" vertex="1">
          <mxGeometry x="460" y="881" width="200" height="80" as="geometry" />
        </mxCell>
        <mxCell id="kANDuQccYSE2ELApMUoI-58" style="edgeStyle=orthogonalEdgeStyle;rounded=0;orthogonalLoop=1;jettySize=auto;html=1;exitX=0.5;exitY=1;exitDx=0;exitDy=0;entryX=0.5;entryY=0;entryDx=0;entryDy=0;" edge="1" parent="1" source="olpWykgg6061KEIdtW-h-29" target="kANDuQccYSE2ELApMUoI-57">
          <mxGeometry relative="1" as="geometry" />
        </mxCell>
        <mxCell id="olpWykgg6061KEIdtW-h-29" value="&lt;font style=&quot;font-size: 14px;&quot;&gt;Enviar Requisição&lt;/font&gt;" style="rounded=0;whiteSpace=wrap;html=1;" parent="1" vertex="1">
          <mxGeometry x="460" y="1080" width="200" height="80" as="geometry" />
        </mxCell>
        <mxCell id="kANDuQccYSE2ELApMUoI-2" style="edgeStyle=orthogonalEdgeStyle;rounded=0;orthogonalLoop=1;jettySize=auto;html=1;exitX=0.5;exitY=1;exitDx=0;exitDy=0;entryX=0.5;entryY=0;entryDx=0;entryDy=0;" edge="1" parent="1" source="olpWykgg6061KEIdtW-h-31" target="kANDuQccYSE2ELApMUoI-1">
          <mxGeometry relative="1" as="geometry" />
        </mxCell>
        <mxCell id="olpWykgg6061KEIdtW-h-31" value="&lt;font style=&quot;font-size: 14px;&quot;&gt;Selecionar Requisição Desejada&lt;/font&gt;" style="rounded=0;whiteSpace=wrap;html=1;" parent="1" vertex="1">
          <mxGeometry x="180" y="640" width="200" height="80" as="geometry" />
        </mxCell>
        <mxCell id="kANDuQccYSE2ELApMUoI-15" style="edgeStyle=orthogonalEdgeStyle;rounded=0;orthogonalLoop=1;jettySize=auto;html=1;exitX=0.5;exitY=1;exitDx=0;exitDy=0;entryX=0.5;entryY=0;entryDx=0;entryDy=0;" edge="1" parent="1" source="kANDuQccYSE2ELApMUoI-1" target="kANDuQccYSE2ELApMUoI-3">
          <mxGeometry relative="1" as="geometry" />
        </mxCell>
        <mxCell id="kANDuQccYSE2ELApMUoI-1" value="&lt;font style=&quot;font-size: 14px;&quot;&gt;Alterar Dados da Requisição&lt;/font&gt;" style="rounded=0;whiteSpace=wrap;html=1;" vertex="1" parent="1">
          <mxGeometry x="180" y="760" width="200" height="80" as="geometry" />
        </mxCell>
        <mxCell id="kANDuQccYSE2ELApMUoI-18" style="edgeStyle=orthogonalEdgeStyle;rounded=0;orthogonalLoop=1;jettySize=auto;html=1;exitX=0.5;exitY=1;exitDx=0;exitDy=0;entryX=0;entryY=0.5;entryDx=0;entryDy=0;" edge="1" parent="1" source="kANDuQccYSE2ELApMUoI-3" target="kANDuQccYSE2ELApMUoI-16">
          <mxGeometry relative="1" as="geometry" />
        </mxCell>
        <mxCell id="kANDuQccYSE2ELApMUoI-3" value="&lt;font style=&quot;font-size: 14px;&quot;&gt;Reenviar Requisição Corrigida&lt;/font&gt;" style="rounded=0;whiteSpace=wrap;html=1;" vertex="1" parent="1">
          <mxGeometry x="180" y="880" width="200" height="80" as="geometry" />
        </mxCell>
        <mxCell id="kANDuQccYSE2ELApMUoI-8" style="edgeStyle=orthogonalEdgeStyle;rounded=0;orthogonalLoop=1;jettySize=auto;html=1;exitX=0.5;exitY=1;exitDx=0;exitDy=0;entryX=0.5;entryY=0;entryDx=0;entryDy=0;" edge="1" parent="1" source="kANDuQccYSE2ELApMUoI-4" target="olpWykgg6061KEIdtW-h-27">
          <mxGeometry relative="1" as="geometry" />
        </mxCell>
        <mxCell id="kANDuQccYSE2ELApMUoI-9" value="&lt;span style=&quot;font-size: 14px;&quot;&gt;Sem Upload&lt;br&gt;Documentos&lt;/span&gt;" style="edgeLabel;html=1;align=center;verticalAlign=middle;resizable=0;points=[];" vertex="1" connectable="0" parent="kANDuQccYSE2ELApMUoI-8">
          <mxGeometry x="-0.3063" y="2" relative="1" as="geometry">
            <mxPoint as="offset" />
          </mxGeometry>
        </mxCell>
        <mxCell id="kANDuQccYSE2ELApMUoI-11" style="edgeStyle=orthogonalEdgeStyle;rounded=0;orthogonalLoop=1;jettySize=auto;html=1;exitX=1;exitY=0.5;exitDx=0;exitDy=0;entryX=0.5;entryY=0;entryDx=0;entryDy=0;" edge="1" parent="1" source="kANDuQccYSE2ELApMUoI-4" target="kANDuQccYSE2ELApMUoI-10">
          <mxGeometry relative="1" as="geometry" />
        </mxCell>
        <mxCell id="kANDuQccYSE2ELApMUoI-12" value="&lt;font style=&quot;font-size: 14px;&quot;&gt;Com Upload de Documentos&lt;/font&gt;" style="edgeLabel;html=1;align=center;verticalAlign=middle;resizable=0;points=[];" vertex="1" connectable="0" parent="kANDuQccYSE2ELApMUoI-11">
          <mxGeometry x="-0.3707" y="-3" relative="1" as="geometry">
            <mxPoint x="29" y="-3" as="offset" />
          </mxGeometry>
        </mxCell>
        <mxCell id="kANDuQccYSE2ELApMUoI-4" value="" style="rhombus;whiteSpace=wrap;html=1;" vertex="1" parent="1">
          <mxGeometry x="540" y="780" width="40" height="40" as="geometry" />
        </mxCell>
        <mxCell id="kANDuQccYSE2ELApMUoI-43" style="edgeStyle=orthogonalEdgeStyle;rounded=0;orthogonalLoop=1;jettySize=auto;html=1;exitX=0.5;exitY=1;exitDx=0;exitDy=0;entryX=0.5;entryY=0;entryDx=0;entryDy=0;" edge="1" parent="1" source="kANDuQccYSE2ELApMUoI-10" target="kANDuQccYSE2ELApMUoI-42">
          <mxGeometry relative="1" as="geometry" />
        </mxCell>
        <mxCell id="kANDuQccYSE2ELApMUoI-10" value="&lt;font style=&quot;font-size: 14px;&quot;&gt;Selecionar Documento&lt;/font&gt;" style="rounded=0;whiteSpace=wrap;html=1;" vertex="1" parent="1">
          <mxGeometry x="720" y="881" width="200" height="80" as="geometry" />
        </mxCell>
        <mxCell id="kANDuQccYSE2ELApMUoI-16" value="" style="ellipse;whiteSpace=wrap;html=1;aspect=fixed;fillColor=#000000;" vertex="1" parent="1">
          <mxGeometry x="535" y="1310" width="50" height="50" as="geometry" />
        </mxCell>
        <mxCell id="kANDuQccYSE2ELApMUoI-17" value="" style="ellipse;whiteSpace=wrap;html=1;aspect=fixed;" vertex="1" parent="1">
          <mxGeometry x="540" y="1315" width="40" height="40" as="geometry" />
        </mxCell>
        <mxCell id="kANDuQccYSE2ELApMUoI-32" style="edgeStyle=orthogonalEdgeStyle;rounded=0;orthogonalLoop=1;jettySize=auto;html=1;exitX=1;exitY=0.5;exitDx=0;exitDy=0;entryX=0;entryY=0.5;entryDx=0;entryDy=0;" edge="1" parent="1" source="kANDuQccYSE2ELApMUoI-20" target="kANDuQccYSE2ELApMUoI-22">
          <mxGeometry relative="1" as="geometry" />
        </mxCell>
        <mxCell id="kANDuQccYSE2ELApMUoI-20" value="" style="ellipse;whiteSpace=wrap;html=1;aspect=fixed;" vertex="1" parent="1">
          <mxGeometry x="1070" y="220" width="40" height="40" as="geometry" />
        </mxCell>
        <mxCell id="kANDuQccYSE2ELApMUoI-21" style="edgeStyle=orthogonalEdgeStyle;rounded=0;orthogonalLoop=1;jettySize=auto;html=1;exitX=1;exitY=0.5;exitDx=0;exitDy=0;entryX=0;entryY=0.5;entryDx=0;entryDy=0;" edge="1" source="kANDuQccYSE2ELApMUoI-22" target="kANDuQccYSE2ELApMUoI-30" parent="1">
          <mxGeometry relative="1" as="geometry" />
        </mxCell>
        <mxCell id="kANDuQccYSE2ELApMUoI-22" value="&lt;font style=&quot;font-size: 14px;&quot;&gt;Coordenador faz o Login com a matricula e a senha&lt;/font&gt;" style="rounded=0;whiteSpace=wrap;html=1;" vertex="1" parent="1">
          <mxGeometry x="1210" y="200" width="200" height="80" as="geometry" />
        </mxCell>
        <mxCell id="kANDuQccYSE2ELApMUoI-23" style="edgeStyle=orthogonalEdgeStyle;rounded=0;orthogonalLoop=1;jettySize=auto;html=1;exitX=0;exitY=0.5;exitDx=0;exitDy=0;entryX=0.5;entryY=0;entryDx=0;entryDy=0;" edge="1" source="kANDuQccYSE2ELApMUoI-25" target="kANDuQccYSE2ELApMUoI-22" parent="1">
          <mxGeometry relative="1" as="geometry" />
        </mxCell>
        <mxCell id="kANDuQccYSE2ELApMUoI-24" value="&lt;font style=&quot;font-size: 14px;&quot;&gt;Reencaminhado&lt;/font&gt;&lt;div&gt;&lt;font style=&quot;font-size: 14px;&quot;&gt;para o Login&lt;/font&gt;&lt;/div&gt;" style="edgeLabel;html=1;align=center;verticalAlign=middle;resizable=0;points=[];" vertex="1" connectable="0" parent="kANDuQccYSE2ELApMUoI-23">
          <mxGeometry x="-0.2093" y="-2" relative="1" as="geometry">
            <mxPoint x="33" y="2" as="offset" />
          </mxGeometry>
        </mxCell>
        <mxCell id="kANDuQccYSE2ELApMUoI-25" value="&lt;font style=&quot;font-size: 14px;&quot;&gt;Mensagem de Erro&lt;/font&gt;" style="rounded=0;whiteSpace=wrap;html=1;" vertex="1" parent="1">
          <mxGeometry x="1450" y="40" width="200" height="80" as="geometry" />
        </mxCell>
        <mxCell id="kANDuQccYSE2ELApMUoI-26" style="edgeStyle=orthogonalEdgeStyle;rounded=0;orthogonalLoop=1;jettySize=auto;html=1;exitX=0.5;exitY=0;exitDx=0;exitDy=0;entryX=0.5;entryY=1;entryDx=0;entryDy=0;" edge="1" source="kANDuQccYSE2ELApMUoI-30" target="kANDuQccYSE2ELApMUoI-25" parent="1">
          <mxGeometry relative="1" as="geometry" />
        </mxCell>
        <mxCell id="kANDuQccYSE2ELApMUoI-27" value="&lt;font style=&quot;font-size: 14px;&quot;&gt;Informações&lt;br&gt;Incorretas&lt;/font&gt;" style="edgeLabel;html=1;align=center;verticalAlign=middle;resizable=0;points=[];" vertex="1" connectable="0" parent="kANDuQccYSE2ELApMUoI-26">
          <mxGeometry x="-0.2834" y="-2" relative="1" as="geometry">
            <mxPoint x="-2" y="-4" as="offset" />
          </mxGeometry>
        </mxCell>
        <mxCell id="kANDuQccYSE2ELApMUoI-28" style="edgeStyle=orthogonalEdgeStyle;rounded=0;orthogonalLoop=1;jettySize=auto;html=1;exitX=0.5;exitY=1;exitDx=0;exitDy=0;entryX=0.5;entryY=0;entryDx=0;entryDy=0;" edge="1" source="kANDuQccYSE2ELApMUoI-30" target="kANDuQccYSE2ELApMUoI-31" parent="1">
          <mxGeometry relative="1" as="geometry" />
        </mxCell>
        <mxCell id="kANDuQccYSE2ELApMUoI-29" value="&lt;font style=&quot;font-size: 14px;&quot;&gt;Informações&lt;br&gt;Corretas&lt;/font&gt;" style="edgeLabel;html=1;align=center;verticalAlign=middle;resizable=0;points=[];" vertex="1" connectable="0" parent="kANDuQccYSE2ELApMUoI-28">
          <mxGeometry x="-0.4034" y="-1" relative="1" as="geometry">
            <mxPoint x="1" y="10" as="offset" />
          </mxGeometry>
        </mxCell>
        <mxCell id="kANDuQccYSE2ELApMUoI-30" value="" style="rhombus;whiteSpace=wrap;html=1;" vertex="1" parent="1">
          <mxGeometry x="1530" y="220" width="40" height="40" as="geometry" />
        </mxCell>
        <mxCell id="kANDuQccYSE2ELApMUoI-34" style="edgeStyle=orthogonalEdgeStyle;rounded=0;orthogonalLoop=1;jettySize=auto;html=1;exitX=0.5;exitY=1;exitDx=0;exitDy=0;entryX=0.5;entryY=0;entryDx=0;entryDy=0;" edge="1" parent="1" source="kANDuQccYSE2ELApMUoI-31" target="kANDuQccYSE2ELApMUoI-33">
          <mxGeometry relative="1" as="geometry" />
        </mxCell>
        <mxCell id="kANDuQccYSE2ELApMUoI-31" value="&lt;font style=&quot;font-size: 14px;&quot;&gt;Homepage Coordenador&lt;/font&gt;" style="rounded=0;whiteSpace=wrap;html=1;" vertex="1" parent="1">
          <mxGeometry x="1450" y="360" width="200" height="80" as="geometry" />
        </mxCell>
        <mxCell id="kANDuQccYSE2ELApMUoI-36" style="edgeStyle=orthogonalEdgeStyle;rounded=0;orthogonalLoop=1;jettySize=auto;html=1;exitX=0.5;exitY=1;exitDx=0;exitDy=0;entryX=0.5;entryY=0;entryDx=0;entryDy=0;" edge="1" parent="1" source="kANDuQccYSE2ELApMUoI-33" target="kANDuQccYSE2ELApMUoI-35">
          <mxGeometry relative="1" as="geometry" />
        </mxCell>
        <mxCell id="kANDuQccYSE2ELApMUoI-33" value="&lt;font style=&quot;font-size: 14px;&quot;&gt;Selecionar Uma Requisição Pendentes&lt;/font&gt;" style="rounded=0;whiteSpace=wrap;html=1;" vertex="1" parent="1">
          <mxGeometry x="1450" y="520" width="200" height="80" as="geometry" />
        </mxCell>
        <mxCell id="kANDuQccYSE2ELApMUoI-39" style="edgeStyle=orthogonalEdgeStyle;rounded=0;orthogonalLoop=1;jettySize=auto;html=1;exitX=0.5;exitY=1;exitDx=0;exitDy=0;entryX=0.5;entryY=0;entryDx=0;entryDy=0;" edge="1" parent="1" source="kANDuQccYSE2ELApMUoI-35" target="kANDuQccYSE2ELApMUoI-38">
          <mxGeometry relative="1" as="geometry" />
        </mxCell>
        <mxCell id="kANDuQccYSE2ELApMUoI-35" value="&lt;span style=&quot;font-size: 14px;&quot;&gt;Revisar Dados Requisição&lt;/span&gt;" style="rounded=0;whiteSpace=wrap;html=1;" vertex="1" parent="1">
          <mxGeometry x="1450" y="680" width="200" height="80" as="geometry" />
        </mxCell>
        <mxCell id="kANDuQccYSE2ELApMUoI-53" style="edgeStyle=orthogonalEdgeStyle;rounded=0;orthogonalLoop=1;jettySize=auto;html=1;exitX=0.5;exitY=1;exitDx=0;exitDy=0;entryX=0;entryY=0.5;entryDx=0;entryDy=0;" edge="1" parent="1" source="kANDuQccYSE2ELApMUoI-37" target="kANDuQccYSE2ELApMUoI-51">
          <mxGeometry relative="1" as="geometry" />
        </mxCell>
        <mxCell id="kANDuQccYSE2ELApMUoI-37" value="&lt;span style=&quot;font-size: 14px;&quot;&gt;Aprovar Requisição&lt;/span&gt;" style="rounded=0;whiteSpace=wrap;html=1;" vertex="1" parent="1">
          <mxGeometry x="1200" y="961" width="200" height="80" as="geometry" />
        </mxCell>
        <mxCell id="kANDuQccYSE2ELApMUoI-40" style="edgeStyle=orthogonalEdgeStyle;rounded=0;orthogonalLoop=1;jettySize=auto;html=1;exitX=0;exitY=0.5;exitDx=0;exitDy=0;" edge="1" parent="1" source="kANDuQccYSE2ELApMUoI-38" target="kANDuQccYSE2ELApMUoI-37">
          <mxGeometry relative="1" as="geometry" />
        </mxCell>
        <mxCell id="kANDuQccYSE2ELApMUoI-41" value="&lt;font style=&quot;font-size: 14px;&quot;&gt;Informações Corretas&lt;/font&gt;" style="edgeLabel;html=1;align=center;verticalAlign=middle;resizable=0;points=[];" vertex="1" connectable="0" parent="kANDuQccYSE2ELApMUoI-40">
          <mxGeometry x="-0.0275" y="-1" relative="1" as="geometry">
            <mxPoint x="51" y="1" as="offset" />
          </mxGeometry>
        </mxCell>
        <mxCell id="kANDuQccYSE2ELApMUoI-46" style="edgeStyle=orthogonalEdgeStyle;rounded=0;orthogonalLoop=1;jettySize=auto;html=1;exitX=1;exitY=0.5;exitDx=0;exitDy=0;" edge="1" parent="1" source="kANDuQccYSE2ELApMUoI-38" target="kANDuQccYSE2ELApMUoI-45">
          <mxGeometry relative="1" as="geometry" />
        </mxCell>
        <mxCell id="kANDuQccYSE2ELApMUoI-47" value="&lt;font style=&quot;font-size: 14px;&quot;&gt;Informações&lt;/font&gt;&lt;div&gt;&lt;font style=&quot;font-size: 14px;&quot;&gt;Incorretas&lt;/font&gt;&lt;/div&gt;" style="edgeLabel;html=1;align=center;verticalAlign=middle;resizable=0;points=[];" vertex="1" connectable="0" parent="kANDuQccYSE2ELApMUoI-46">
          <mxGeometry x="-0.6543" y="-2" relative="1" as="geometry">
            <mxPoint x="37" y="-2" as="offset" />
          </mxGeometry>
        </mxCell>
        <mxCell id="kANDuQccYSE2ELApMUoI-38" value="" style="rhombus;whiteSpace=wrap;html=1;" vertex="1" parent="1">
          <mxGeometry x="1530" y="840" width="40" height="40" as="geometry" />
        </mxCell>
        <mxCell id="kANDuQccYSE2ELApMUoI-44" style="edgeStyle=orthogonalEdgeStyle;rounded=0;orthogonalLoop=1;jettySize=auto;html=1;exitX=0.5;exitY=1;exitDx=0;exitDy=0;entryX=1;entryY=0.5;entryDx=0;entryDy=0;" edge="1" parent="1" source="kANDuQccYSE2ELApMUoI-42" target="olpWykgg6061KEIdtW-h-29">
          <mxGeometry relative="1" as="geometry" />
        </mxCell>
        <mxCell id="kANDuQccYSE2ELApMUoI-42" value="&lt;span style=&quot;font-size: 14px;&quot;&gt;Realizar Upload do Documento&lt;/span&gt;" style="rounded=0;whiteSpace=wrap;html=1;" vertex="1" parent="1">
          <mxGeometry x="720" y="1000" width="200" height="80" as="geometry" />
        </mxCell>
        <mxCell id="kANDuQccYSE2ELApMUoI-50" style="edgeStyle=orthogonalEdgeStyle;rounded=0;orthogonalLoop=1;jettySize=auto;html=1;exitX=0.5;exitY=1;exitDx=0;exitDy=0;entryX=0.5;entryY=0;entryDx=0;entryDy=0;" edge="1" parent="1" source="kANDuQccYSE2ELApMUoI-45" target="kANDuQccYSE2ELApMUoI-48">
          <mxGeometry relative="1" as="geometry" />
        </mxCell>
        <mxCell id="kANDuQccYSE2ELApMUoI-45" value="&lt;span style=&quot;font-size: 14px;&quot;&gt;Reprovar Requisição&lt;/span&gt;" style="rounded=0;whiteSpace=wrap;html=1;" vertex="1" parent="1">
          <mxGeometry x="1700" y="820" width="200" height="80" as="geometry" />
        </mxCell>
        <mxCell id="kANDuQccYSE2ELApMUoI-52" style="edgeStyle=orthogonalEdgeStyle;rounded=0;orthogonalLoop=1;jettySize=auto;html=1;exitX=0.5;exitY=1;exitDx=0;exitDy=0;entryX=0.5;entryY=0;entryDx=0;entryDy=0;" edge="1" parent="1" source="kANDuQccYSE2ELApMUoI-48" target="kANDuQccYSE2ELApMUoI-51">
          <mxGeometry relative="1" as="geometry" />
        </mxCell>
        <mxCell id="kANDuQccYSE2ELApMUoI-48" value="&lt;span style=&quot;font-size: 14px;&quot;&gt;Comentar o Motivo da Requisição&lt;/span&gt;" style="rounded=0;whiteSpace=wrap;html=1;" vertex="1" parent="1">
          <mxGeometry x="1700" y="961" width="200" height="80" as="geometry" />
        </mxCell>
        <mxCell id="kANDuQccYSE2ELApMUoI-63" style="edgeStyle=orthogonalEdgeStyle;rounded=0;orthogonalLoop=1;jettySize=auto;html=1;exitX=1;exitY=0.5;exitDx=0;exitDy=0;" edge="1" parent="1" source="kANDuQccYSE2ELApMUoI-51" target="kANDuQccYSE2ELApMUoI-62">
          <mxGeometry relative="1" as="geometry" />
        </mxCell>
        <mxCell id="kANDuQccYSE2ELApMUoI-51" value="&lt;span style=&quot;font-size: 14px;&quot;&gt;Enviar Requisição&lt;/span&gt;" style="rounded=0;whiteSpace=wrap;html=1;" vertex="1" parent="1">
          <mxGeometry x="1700" y="1161" width="200" height="80" as="geometry" />
        </mxCell>
        <mxCell id="kANDuQccYSE2ELApMUoI-54" value="" style="ellipse;whiteSpace=wrap;html=1;aspect=fixed;fillColor=#000000;" vertex="1" parent="1">
          <mxGeometry x="2098" y="1176" width="50" height="50" as="geometry" />
        </mxCell>
        <mxCell id="kANDuQccYSE2ELApMUoI-55" value="" style="ellipse;whiteSpace=wrap;html=1;aspect=fixed;" vertex="1" parent="1">
          <mxGeometry x="2103" y="1181" width="40" height="40" as="geometry" />
        </mxCell>
        <mxCell id="kANDuQccYSE2ELApMUoI-59" style="edgeStyle=orthogonalEdgeStyle;rounded=0;orthogonalLoop=1;jettySize=auto;html=1;exitX=0.5;exitY=1;exitDx=0;exitDy=0;entryX=0.5;entryY=0;entryDx=0;entryDy=0;" edge="1" parent="1" source="kANDuQccYSE2ELApMUoI-57" target="kANDuQccYSE2ELApMUoI-16">
          <mxGeometry relative="1" as="geometry" />
        </mxCell>
        <mxCell id="kANDuQccYSE2ELApMUoI-60" value="&lt;font style=&quot;font-size: 14px;&quot;&gt;Sem Nova Solicitação&lt;/font&gt;" style="edgeLabel;html=1;align=center;verticalAlign=middle;resizable=0;points=[];" vertex="1" connectable="0" parent="kANDuQccYSE2ELApMUoI-59">
          <mxGeometry x="-0.2014" y="1" relative="1" as="geometry">
            <mxPoint as="offset" />
          </mxGeometry>
        </mxCell>
        <mxCell id="kANDuQccYSE2ELApMUoI-61" style="edgeStyle=orthogonalEdgeStyle;rounded=0;orthogonalLoop=1;jettySize=auto;html=1;exitX=1;exitY=0.5;exitDx=0;exitDy=0;entryX=1;entryY=0.5;entryDx=0;entryDy=0;" edge="1" parent="1" source="kANDuQccYSE2ELApMUoI-57" target="olpWykgg6061KEIdtW-h-10">
          <mxGeometry relative="1" as="geometry">
            <Array as="points">
              <mxPoint x="950" y="1240" />
              <mxPoint x="950" y="400" />
            </Array>
          </mxGeometry>
        </mxCell>
        <mxCell id="kANDuQccYSE2ELApMUoI-66" value="&lt;font style=&quot;font-size: 14px;&quot;&gt;Nova Solicitação&lt;/font&gt;" style="edgeLabel;html=1;align=center;verticalAlign=middle;resizable=0;points=[];" vertex="1" connectable="0" parent="kANDuQccYSE2ELApMUoI-61">
          <mxGeometry x="-0.8244" y="-1" relative="1" as="geometry">
            <mxPoint x="-22" y="-1" as="offset" />
          </mxGeometry>
        </mxCell>
        <mxCell id="kANDuQccYSE2ELApMUoI-57" value="" style="rhombus;whiteSpace=wrap;html=1;" vertex="1" parent="1">
          <mxGeometry x="540" y="1220" width="40" height="40" as="geometry" />
        </mxCell>
        <mxCell id="kANDuQccYSE2ELApMUoI-64" style="edgeStyle=orthogonalEdgeStyle;rounded=0;orthogonalLoop=1;jettySize=auto;html=1;exitX=1;exitY=0.5;exitDx=0;exitDy=0;entryX=0;entryY=0.5;entryDx=0;entryDy=0;" edge="1" parent="1" source="kANDuQccYSE2ELApMUoI-62" target="kANDuQccYSE2ELApMUoI-54">
          <mxGeometry relative="1" as="geometry" />
        </mxCell>
        <mxCell id="kANDuQccYSE2ELApMUoI-65" value="&lt;font style=&quot;font-size: 14px;&quot;&gt;Sem Nova&lt;/font&gt;&lt;div&gt;&lt;font style=&quot;font-size: 14px;&quot;&gt;Requisição&lt;/font&gt;&lt;/div&gt;" style="edgeLabel;html=1;align=center;verticalAlign=middle;resizable=0;points=[];" vertex="1" connectable="0" parent="kANDuQccYSE2ELApMUoI-64">
          <mxGeometry x="-0.3464" relative="1" as="geometry">
            <mxPoint x="7" y="1" as="offset" />
          </mxGeometry>
        </mxCell>
        <mxCell id="kANDuQccYSE2ELApMUoI-62" value="" style="rhombus;whiteSpace=wrap;html=1;" vertex="1" parent="1">
          <mxGeometry x="1961" y="1180" width="40" height="40" as="geometry" />
        </mxCell>
      </root>
    </mxGraphModel>
  </diagram>
</mxfile>
